<svg width="37" height="34" viewBox="0 0 37 34" fill="none" xmlns="http://www.w3.org/2000/svg">
<path d="M36.263 12.121H35.7691C35.2879 9.68002 32.8198 5.38221 31.7272 3.56187C32.2395 3.20957 32.5762 2.61965 32.5762 1.95242C32.5762 0.87589 31.7002 0 30.6234 0C29.5467 0 28.6707 0.875818 28.6707 1.95242C28.6707 2.61965 29.0075 3.20957 29.5198 3.56187C28.4273 5.38221 25.9591 9.68002 25.4779 12.121H24.9841C24.5771 12.121 24.2471 12.4509 24.2471 12.8579C24.2471 16.3732 27.1076 19.2332 30.6236 19.2332C34.1396 19.2332 37.0001 16.3732 37.0001 12.8579C37.0001 12.4509 36.67 12.121 36.263 12.121ZM30.6235 1.47383C30.8874 1.47383 31.1022 1.68856 31.1022 1.95242C31.1022 2.21628 30.8874 2.43093 30.6235 2.43093C30.3596 2.43093 30.1449 2.21628 30.1449 1.95242C30.1449 1.68856 30.3595 1.47383 30.6235 1.47383ZM30.6223 4.58782C31.8695 6.69262 33.7956 10.1986 34.2694 12.121H26.9799C27.4272 10.3211 29.1602 7.04476 30.6223 4.58782ZM30.6235 17.7594C28.1708 17.7594 26.1329 15.9492 25.7763 13.5948H35.4707C35.1141 15.9492 33.0764 17.7594 30.6235 17.7594Z" fill="#5A5C61"/>
<path d="M25.0598 29.7646H23.1113V27.8931C23.1113 27.4861 22.7813 27.1563 22.3743 27.1563H20.5025V6.57192C20.9846 6.0955 21.2951 5.4459 21.3311 4.72506L24.4475 4.05458C24.8455 3.96896 25.0987 3.577 25.0131 3.17912C24.9274 2.78124 24.5353 2.52836 24.1375 2.61376L21.0137 3.28591C20.5451 2.39636 19.6114 1.78809 18.5379 1.78809C17.0512 1.78809 15.8322 2.95392 15.7465 4.41915L7.95351 6.09579C7.59798 5.60962 7.02369 5.29302 6.37657 5.29302C5.29984 5.29302 4.42378 6.16884 4.42378 7.24544C4.42378 7.91267 4.76053 8.50267 5.27288 8.85489C4.18025 10.6752 1.71222 14.973 1.23102 17.414H0.737164C0.329957 17.414 0 17.7439 0 18.1509C0 21.6662 2.8605 24.5262 6.3765 24.5262C9.8925 24.5262 12.753 21.6662 12.753 18.1509C12.753 17.7439 12.423 17.414 12.016 17.414H11.5221C11.0409 14.973 8.57282 10.6752 7.48026 8.85489C7.91919 8.5531 8.22891 8.0769 8.30876 7.527L16.0512 5.86127C16.1874 6.12527 16.364 6.36514 16.5733 6.57207V27.1565H14.7016C14.2945 27.1565 13.9646 27.4864 13.9646 27.8933V29.7648H12.016C11.609 29.7648 11.279 30.0947 11.279 30.5017V33.2631C11.279 33.6701 11.609 34 12.016 34H25.0598C25.4668 34 25.7969 33.6701 25.7969 33.2631V30.5014C25.7969 30.0945 25.4668 29.7646 25.0598 29.7646ZM6.3765 6.76671C6.64041 6.76671 6.85517 6.98144 6.85517 7.2453C6.85517 7.50915 6.64041 7.72381 6.3765 7.72381C6.11259 7.72381 5.89782 7.50915 5.89782 7.2453C5.89782 6.98144 6.11259 6.76671 6.3765 6.76671ZM6.3765 23.0523C3.92372 23.0523 1.88587 21.2421 1.52932 18.8876H11.2237C10.8671 21.2421 8.82928 23.0523 6.3765 23.0523ZM10.0224 17.4139H2.73295C3.18026 15.614 4.91323 12.3376 6.37541 9.8807C7.62254 11.9854 9.5486 15.4914 10.0224 17.4139ZM18.5379 3.2617C19.2673 3.2617 19.8606 3.85488 19.8606 4.5841C19.8606 5.31332 19.2672 5.9065 18.5379 5.9065C17.8087 5.9065 17.2153 5.31332 17.2153 4.5841C17.2153 3.85488 17.8086 3.2617 18.5379 3.2617ZM19.0285 7.33648V27.1563H18.0473V7.3364C18.2068 7.3648 18.3705 7.3804 18.538 7.3804C18.7055 7.3804 18.8691 7.36473 19.0285 7.33648ZM15.4385 28.63H21.6373V29.7646H15.4385V28.63ZM24.3228 32.5262H12.7531V31.2383H24.3228V32.5262Z" fill="#5A5C61"/>
<path d="M27.8513 2.61386C27.7657 2.21598 27.3736 1.96289 26.9756 2.04851L26.4386 2.16403C26.0407 2.24965 25.7875 2.64161 25.8731 3.03949C25.9476 3.38514 26.2531 3.62147 26.593 3.62147C26.6444 3.62147 26.6965 3.61612 26.7488 3.60485L27.2859 3.48932C27.6837 3.40371 27.937 3.01175 27.8513 2.61386Z" fill="#5A5C61"/>
</svg>
