<svg width="20" height="20" viewBox="0 0 20 20" fill="none" xmlns="http://www.w3.org/2000/svg">
<g clip-path="url(#clip0)">
<path d="M19.076 1.17105H15.2129V0.589556C15.2129 0.264023 14.9489 0 14.6233 0C14.2978 0 14.0338 0.264023 14.0338 0.589556V1.17105H10.5895V0.589556C10.5895 0.264023 10.3255 0 9.99995 0C9.67441 0 9.41039 0.264023 9.41039 0.589556V1.17105H6.11251V0.589556C6.11251 0.264023 5.84849 0 5.52296 0C5.19742 0 4.9334 0.264023 4.9334 0.589556V1.17105H0.924029C0.598495 1.17105 0.334473 1.43508 0.334473 1.76061V15.0818C0.334473 15.4074 0.598495 15.6714 0.924029 15.6714H4.54253C5.12235 18.1489 7.34832 20 9.99995 20C12.6516 20 14.8775 18.1488 15.4574 15.6714H19.0759C19.4014 15.6714 19.6654 15.4074 19.6654 15.0818V1.76061C19.6655 1.43508 19.4016 1.17105 19.076 1.17105ZM4.9334 2.35017V2.88293C4.9334 3.20846 5.19742 3.47249 5.52296 3.47249C5.84849 3.47249 6.11251 3.20846 6.11251 2.88293V2.35017H9.41039V2.88293C9.41039 3.20846 9.67441 3.47249 9.99995 3.47249C10.3255 3.47249 10.5895 3.20846 10.5895 2.88293V2.35017H14.0338V2.88293C14.0338 3.20846 14.2978 3.47249 14.6233 3.47249C14.9489 3.47249 15.2129 3.20846 15.2129 2.88293V2.35017H18.4864V4.76106H1.51358V2.35017H4.9334ZM9.99995 18.8209C7.55899 18.8209 5.57307 16.835 5.57307 14.394C5.57307 11.9531 7.55899 9.96713 9.99995 9.96713C12.4409 9.96713 14.4268 11.953 14.4268 14.394C14.4268 16.8351 12.441 18.8209 9.99995 18.8209ZM15.6035 14.4923C15.6041 14.4595 15.6059 14.4269 15.6059 14.394C15.6059 11.3029 13.0911 8.78802 9.99995 8.78802C6.90881 8.78802 4.39396 11.3029 4.39396 14.394C4.39396 14.4269 4.39592 14.4595 4.39641 14.4923H1.51349V5.94027H18.4863V14.4923H15.6035Z" fill="#979EA7"/>
<path d="M10.5893 14.5427V11.6906C10.5893 11.3651 10.3252 11.1011 9.99971 11.1011C9.67418 11.1011 9.41016 11.3651 9.41016 11.6906V14.787C9.41016 14.9433 9.47226 15.0933 9.5828 15.2039L10.9378 16.559C11.053 16.6741 11.2038 16.7316 11.3547 16.7316C11.5055 16.7316 11.6565 16.6741 11.7716 16.559C12.0018 16.3288 12.0018 15.9555 11.7716 15.7253L10.5893 14.5427Z" fill="#979EA7"/>
</g>
<defs>
<clipPath id="clip0">
<rect width="20" height="20" fill="white"/>
</clipPath>
</defs>
</svg>
