<svg width="22" height="22" viewBox="0 0 22 22" fill="none" xmlns="http://www.w3.org/2000/svg">
<g clip-path="url(#clip0)">
<path d="M3.7165 7.77734H1.18994V9.06641H3.7165V7.77734Z" fill="#979EA7"/>
<path d="M3.7165 12.9336H1.18994V14.2227H3.7165V12.9336Z" fill="#979EA7"/>
<path d="M3.71637 10.3555H0V11.6445H3.71637V10.3555Z" fill="#979EA7"/>
<path d="M13.5031 2.50293C8.81774 2.50293 5.00586 6.31482 5.00586 11.0002C5.00586 15.6856 8.8177 19.4975 13.5031 19.4975C18.1886 19.4975 22.0005 15.6856 22.0005 11.0002C22.0005 6.31482 18.1886 2.50293 13.5031 2.50293ZM13.5031 18.2084C9.52853 18.2084 6.29492 14.9748 6.29492 11.0002C6.29492 7.02561 9.52853 3.79199 13.5031 3.79199C17.4778 3.79199 20.7114 7.02561 20.7114 11.0002C20.7114 14.9748 17.4778 18.2084 13.5031 18.2084Z" fill="#979EA7"/>
<path d="M13.9185 11.3203V7.15674H12.6294V12.0017L15.9512 14.2654L16.6772 13.2002L13.9185 11.3203Z" fill="#979EA7"/>
</g>
<defs>
<clipPath id="clip0">
<rect width="22" height="22" fill="white"/>
</clipPath>
</defs>
</svg>
