<svg width="37" height="37" viewBox="0 0 37 37" fill="none" xmlns="http://www.w3.org/2000/svg">
<path d="M27.9922 4.10085L18.7401 0.0517879C18.5828 -0.0168557 18.404 -0.0168557 18.2467 0.0517879L8.9946 4.10085C8.76992 4.19889 8.62464 4.42064 8.62451 4.66572V14.3475C8.62786 16.5233 9.67364 18.5658 11.4371 19.8408L17.8316 24.4516C18.2265 24.7374 18.7603 24.7374 19.1552 24.4516L25.5497 19.8414C27.3132 18.5664 28.359 16.5239 28.3623 14.3481V4.66572C28.3622 4.42064 28.2169 4.19889 27.9922 4.10085ZM27.1287 14.3481C27.1259 16.1277 26.2705 17.7983 24.828 18.8412L18.4934 23.4088L12.1588 18.8412C10.7164 17.7983 9.86095 16.1277 9.85812 14.3481V5.06903L18.4934 1.29006L27.1287 5.06903V14.3481Z" fill="#5A5C61"/>
<path d="M5.09949 20.4735L3.76533 17.3569C3.48162 16.7143 2.87658 16.2719 2.17813 16.1963C1.47969 16.1206 0.793944 16.4233 0.379217 16.9902C-0.0355103 17.5572 -0.116215 18.3022 0.167503 18.9448L2.58477 24.2611C2.91088 24.9808 3.36455 25.6356 3.92385 26.1938L7.72523 29.9949C7.51114 30.2218 7.39159 30.5217 7.39092 30.8336V35.767C7.39092 36.4481 7.94323 37.0003 8.62454 37.0003H15.4094C16.0907 37.0003 16.643 36.4481 16.643 35.767V30.8336C16.643 30.1524 16.0907 29.6003 15.4094 29.6003V28.4526C15.4283 26.9922 14.9517 25.5684 14.0574 24.4134C13.533 23.7239 12.8184 23.2028 12.0016 22.9143C10.7025 22.3686 9.50772 21.6021 8.47033 20.6486C7.5074 19.8558 6.13943 19.7847 5.09949 20.4735ZM15.4094 35.767H8.62454V30.8336H15.4094V35.767ZM13.0945 25.1837C13.8135 26.1202 14.1945 27.2722 14.1758 28.4526V29.6003H9.07542L4.79602 25.3218C4.34151 24.868 3.97271 24.3359 3.70735 23.7511L1.29009 18.4348C1.18693 18.2079 1.20613 17.9441 1.34106 17.7345C1.47599 17.525 1.70817 17.3983 1.95748 17.3982C2.25086 17.3979 2.516 17.573 2.63103 17.8428L4.01082 21.06C4.37722 21.9183 4.90534 22.6982 5.56641 23.3571L8.38398 26.1746C8.53885 26.335 8.76818 26.3992 8.98383 26.3428C9.19948 26.2864 9.3679 26.118 9.42435 25.9024C9.48079 25.6868 9.41649 25.4575 9.25615 25.3027L6.43857 22.4851C6.15525 22.2025 5.90051 21.8927 5.67805 21.5601C6.27039 21.1044 7.09907 21.1182 7.67589 21.5934C8.82891 22.6513 10.1615 23.495 11.6111 24.0847C12.2017 24.2995 12.7171 24.6813 13.0945 25.1837Z" fill="#5A5C61"/>
<path d="M13.5588 32.6836H12.9421C12.6015 32.6836 12.3254 32.9597 12.3254 33.3003C12.3254 33.6408 12.6015 33.9169 12.9421 33.9169H13.5588C13.8993 33.9169 14.1754 33.6408 14.1754 33.3003C14.1754 32.9597 13.8993 32.6836 13.5588 32.6836Z" fill="#5A5C61"/>
<path d="M34.4023 24.2611L36.8195 18.9448C37.1167 18.3 37.0432 17.5452 36.6272 16.9699C36.2111 16.3947 35.5172 16.0883 34.8116 16.1685C34.1061 16.2487 33.4986 16.7029 33.2223 17.3568L31.8912 20.4618C30.8477 19.7763 29.479 19.8514 28.5167 20.6468C27.4793 21.6002 26.2846 22.3667 24.9855 22.9124C24.1686 23.201 23.454 23.7221 22.9297 24.4116C22.0349 25.567 21.5583 26.9915 21.5776 28.4526V29.6003C20.8963 29.6003 20.344 30.1524 20.344 30.8336V35.767C20.344 36.4481 20.8963 37.0003 21.5776 37.0003H28.3625C29.0438 37.0003 29.5961 36.4481 29.5961 35.767V30.8336C29.5954 30.5217 29.4759 30.2218 29.2618 29.9949L33.0632 26.1938C33.6225 25.6356 34.0762 24.9808 34.4023 24.2611ZM28.3625 35.767H21.5776V30.8336H28.3625V35.767ZM27.9116 29.6003H22.8112V28.4526C22.7926 27.2724 23.1737 26.1206 23.8925 25.1843C24.2691 24.6822 24.7833 24.3002 25.3728 24.0847C26.8227 23.4952 28.1555 22.6515 29.3087 21.5934C29.8849 21.1146 30.7159 21.0984 31.3102 21.5545C31.0871 21.8896 30.8311 22.2015 30.546 22.4857L27.7284 25.3033C27.4947 25.5452 27.498 25.9299 27.7359 26.1677C27.9738 26.4056 28.3586 26.409 28.6006 26.1753L31.4181 23.3577C32.0792 22.6988 32.6073 21.9189 32.9737 21.0606L34.3535 17.8428C34.4689 17.5733 34.7339 17.3986 35.0271 17.3988C35.2764 17.3989 35.5086 17.5256 35.6435 17.7351C35.7784 17.9447 35.7976 18.2085 35.6945 18.4354L33.2772 23.7517C33.0119 24.3365 32.643 24.8686 32.1885 25.3224L27.9116 29.6003Z" fill="#5A5C61"/>
<path d="M24.0444 32.6836H23.4277C23.0871 32.6836 22.811 32.9597 22.811 33.3003C22.811 33.6408 23.0871 33.9169 23.4277 33.9169H24.0444C24.3849 33.9169 24.661 33.6408 24.661 33.3003C24.661 32.9597 24.3849 32.6836 24.0444 32.6836Z" fill="#5A5C61"/>
<path d="M15.1627 13.0734C14.8902 12.8691 14.5036 12.9243 14.2992 13.1968C14.0948 13.4692 14.15 13.8558 14.4225 14.0601L16.8898 15.9101C16.9965 15.9902 17.1264 16.0334 17.2598 16.0334C17.2948 16.0333 17.3296 16.0304 17.3641 16.0248C17.5311 15.9962 17.679 15.9 17.773 15.759L22.7075 8.35897C22.8298 8.17567 22.845 7.94105 22.7474 7.74351C22.6497 7.54597 22.4541 7.4155 22.2342 7.40126C22.0142 7.38701 21.8034 7.49116 21.6811 7.67446L17.1081 14.5325L15.1627 13.0734Z" fill="#5A5C61"/>
</svg>
