<svg width="37" height="37" viewBox="0 0 37 37" fill="none" xmlns="http://www.w3.org/2000/svg">
<g clip-path="url(#clip0)">
<path d="M3.61328 32.6635C3.21413 32.6635 2.89062 32.987 2.89062 33.3861V33.3867C2.89062 33.7855 3.21413 34.109 3.61328 34.109C4.01244 34.109 4.33594 33.7853 4.33594 33.3861C4.33594 32.987 4.01244 32.6635 3.61328 32.6635Z" fill="#5A5C61"/>
<path d="M36.2773 0H30.4961C30.0969 0 29.7734 0.323502 29.7734 0.722656V1.47693L28.8091 1.471H28.8046C28.4077 1.471 28.0845 1.7914 28.082 2.18886C28.0794 2.58801 28.4009 2.91377 28.8001 2.91631L29.7734 2.92224V10.4198C27.8813 11.6116 26.1734 10.9254 24.3707 10.1993C23.1829 9.72086 21.9541 9.22629 20.7281 9.38013C20.3414 9.42869 19.2975 9.58028 18.1926 9.74062C17.1456 9.89249 16.0627 10.0497 15.6904 10.0966C15.501 10.1203 15.3121 10.0675 15.1586 9.9481C15.0019 9.82587 14.902 9.65057 14.8777 9.45409C14.8619 9.32622 14.8198 8.98606 15.7254 8.56573C17.6424 7.67681 19.6853 6.91576 21.3305 6.47794C21.7161 6.37518 21.9456 5.97942 21.8428 5.59353C21.7404 5.20792 21.3446 4.97871 20.9587 5.08118C19.2362 5.53961 17.1069 6.33199 15.1174 7.25479C14.4252 7.57575 13.9998 7.94922 13.7491 8.32579L6.50392 10.3015C5.74174 10.4932 5.35077 10.1897 5.23871 9.84167C5.12861 9.49898 5.26157 9.0572 5.80667 8.84209C6.37378 8.62614 7.72735 8.03024 9.44027 7.27653C11.7104 6.27751 14.5353 5.03403 16.7879 4.12027C19.4649 3.03431 20.2807 2.87058 23.0214 2.88046H23.0237C23.4217 2.88046 30.6869 3.4808 30.4961 2.18886C30.6869 0.980804 23.4248 1.43628 23.0256 1.43515C20.1023 1.42527 19.088 1.62767 16.2448 2.7811C13.9724 3.70277 11.1368 4.95076 8.85819 5.95345C7.22742 6.6713 5.81881 7.29121 5.28867 7.49276C5.28641 7.49361 5.28415 7.49445 5.2819 7.4953C3.93172 8.02487 3.54611 9.29912 3.86284 10.284C4.17477 11.2545 5.24746 12.1118 6.86525 11.7011C6.86948 11.7 6.87343 11.6991 6.87767 11.6977L13.4919 9.89418C13.6094 10.3667 13.8798 10.7842 14.2708 11.0885C14.7295 11.4456 15.2977 11.6026 15.8705 11.5306C16.2567 11.482 17.2977 11.3307 18.4001 11.171C19.4499 11.0185 20.535 10.861 20.9082 10.8142C21.7621 10.7069 22.7671 11.1114 23.8307 11.5399C24.9579 11.9938 26.242 12.5113 27.6317 12.511C28.3216 12.511 29.0378 12.3823 29.7734 12.0559V12.2852C29.7734 12.6843 30.0969 13.0078 30.4961 13.0078H36.2773C36.6765 13.0078 37 12.6843 37 12.2852V0.722656C37 0.323502 36.6765 0 36.2773 0ZM35.5547 11.5625H31.2187V2.20947V2.20805V1.44531H35.5547V11.5625Z" fill="#5A5C61"/>
<path d="M33.3867 4.33647C33.7859 4.33647 34.1094 4.01296 34.1094 3.61381V3.61324C34.1094 3.21437 33.7859 2.89087 33.3867 2.89087C32.9876 2.89087 32.6641 3.21465 32.6641 3.61381C32.6641 4.01296 32.9876 4.33647 33.3867 4.33647Z" fill="#5A5C61"/>
<path d="M13.4414 23.5586C15.1563 23.5586 16.6739 22.6999 17.5891 21.3906H20.2589C20.4506 21.3906 20.6344 21.3144 20.7699 21.1789L22.0035 19.9453H22.8503L24.0839 21.1789C24.2194 21.3144 24.4032 21.3906 24.5949 21.3906H25.7266C25.9182 21.3906 26.102 21.3144 26.2375 21.1789L28.4055 19.0109C28.541 18.8754 28.6172 18.6917 28.6172 18.5V16.332C28.6172 15.9332 28.2937 15.6094 27.8945 15.6094H17.5893C16.6739 14.3001 15.1566 13.4414 13.4414 13.4414C10.6521 13.4414 8.38281 15.7107 8.38281 18.5C8.38281 21.2893 10.6521 23.5586 13.4414 23.5586ZM27.1719 17.0547V18.2008L25.4273 19.9453H24.8944L23.6605 18.7117C23.525 18.5762 23.3412 18.5 23.1496 18.5H21.7042C21.5126 18.5 21.3288 18.5762 21.1933 18.7117L19.9597 19.9453H18.2886C18.4255 19.4872 18.5 19.0022 18.5 18.5C18.5 17.9978 18.4255 17.5128 18.2886 17.0547H27.1719ZM13.4414 14.8867C15.4338 14.8867 17.0547 16.5076 17.0547 18.5C17.0547 20.4924 15.4338 22.1133 13.4414 22.1133C11.449 22.1133 9.82812 20.4924 9.82812 18.5C9.82812 16.5076 11.449 14.8867 13.4414 14.8867Z" fill="#5A5C61"/>
<path d="M11.9961 19.2227C12.3952 19.2227 12.7188 18.8989 12.7188 18.4998C12.7188 18.1006 12.3952 17.7771 11.9961 17.7771C11.5969 17.7771 11.2734 18.1006 11.2734 18.4998V18.5003C11.2734 18.8995 11.5969 19.2227 11.9961 19.2227Z" fill="#5A5C61"/>
<path d="M30.1348 25.2989C30.1305 25.3 30.1266 25.3008 30.1223 25.3022L23.5081 27.1058C23.3906 26.6332 23.1202 26.2157 22.7292 25.9114C22.2705 25.5543 21.7023 25.3974 21.1295 25.4694C20.7433 25.5179 19.7023 25.6692 18.5999 25.829C17.5501 25.9814 16.465 26.1389 16.0918 26.1858C15.2382 26.2928 14.2329 25.8886 13.1693 25.46C11.4823 24.7809 9.44337 23.96 7.22656 24.9432V24.7151C7.22656 24.3159 6.90306 23.9924 6.50391 23.9924H0.722656C0.323502 23.9924 0 24.3159 0 24.7151V36.2773C0 36.6765 0.323502 37 0.722656 37H6.50391C6.90306 37 7.22656 36.6765 7.22656 36.2773V35.523L8.19086 35.529H8.19537C8.59227 35.529 8.91549 35.2086 8.91803 34.8108C8.92057 34.412 8.59904 34.0862 8.19989 34.0837L7.22656 34.0777V26.5802C9.11874 25.3883 10.8266 26.0746 12.6293 26.8003C13.8174 27.2791 15.0465 27.7737 16.2719 27.6195C16.6589 27.571 17.7025 27.4197 18.8074 27.2593C19.8544 27.1072 20.9373 26.9502 21.3096 26.9034C21.499 26.8797 21.6879 26.9322 21.8414 27.0519C21.9984 27.1741 22.098 27.3494 22.1223 27.5459C22.1381 27.6737 22.1805 28.0139 21.2746 28.4339C19.3576 29.3232 17.315 30.0842 15.6698 30.522C15.2842 30.6248 15.0547 31.0205 15.1571 31.4062C15.2599 31.792 15.656 32.021 16.0413 31.9188C17.7638 31.4604 19.8931 30.668 21.8829 29.7452C22.5748 29.4242 23.0002 29.0507 23.2512 28.6742L30.4961 26.6984C31.258 26.5065 31.6492 26.8102 31.7613 27.1583C31.8714 27.501 31.7384 27.9428 31.1936 28.1579C30.6268 28.3738 29.2727 28.9697 27.5595 29.7237C25.2896 30.7227 22.4647 31.9659 20.2121 32.8797C17.5351 33.9657 16.7176 34.1299 13.9786 34.1195H13.9763C13.5783 34.1195 6.5 33.4999 7.16804 34.8108C5.78125 35.9999 13.5752 35.5637 13.9744 35.5648C14.0334 35.5651 14.0915 35.5651 14.1491 35.5651C16.9398 35.5651 17.9696 35.3491 20.7552 34.2189C23.0273 33.2972 25.8632 32.0492 28.1415 31.0465C29.7726 30.3287 31.1812 29.7088 31.7111 29.5072C31.7133 29.5064 31.7156 29.5055 31.7181 29.5047C33.0683 28.9751 33.4539 27.7008 33.1372 26.7159C32.8252 25.7457 31.7526 24.8884 30.1348 25.2989ZM1.44531 35.5547V25.4375H5.78125V34.7913V35.5547H1.44531Z" fill="#5A5C61"/>
</g>
<defs>
<clipPath id="clip0">
<rect width="37" height="37" fill="white"/>
</clipPath>
</defs>
</svg>
