<svg width="1118" height="80" viewBox="0 0 1118 80" fill="none" xmlns="http://www.w3.org/2000/svg">
<mask id="mask0" mask-type="alpha" maskUnits="userSpaceOnUse" x="0" y="0" width="1118" height="80">
<rect width="1118" height="80" fill="url(#paint0_linear)"/>
<rect width="1118" height="80" fill="black" fill-opacity="0.11"/>
</mask>
<g mask="url(#mask0)">
<path d="M0 5C0 2.23858 2.23858 0 5 0H1118V80H0V5Z" fill="#EEEEEE"/>
<path fill-rule="evenodd" clip-rule="evenodd" d="M318 21.1123C318 16.4053 318 14.0517 317.041 12.2735C316.299 10.8998 315.172 9.77301 313.799 9.03183C312.021 8.07234 309.667 8.07234 304.96 8.07234H91.04C86.3329 8.07234 83.9794 8.07234 82.2011 9.03183C80.8275 9.77301 79.7007 10.8998 78.9595 12.2735C78 14.0517 78 16.4053 78 21.1123V28.9601C78 33.6671 78 36.0207 77.0405 37.7989C76.2993 39.1726 75.1725 40.2994 73.7989 41.0406C72.0206 42.0001 69.6671 42.0001 64.96 42.0001H0.1C0.0447715 42.0001 0 42.0448 0 42.1001V79.9001C0 79.9553 0.0447285 80.0001 0.099957 80.0001H1117.9C1117.96 80.0001 1118 79.9553 1118 79.9001V42.1001C1118 42.0448 1117.96 42.0001 1117.9 42.0001H331.04C326.333 42.0001 323.979 42.0001 322.201 41.0406C320.828 40.2994 319.701 39.1726 318.959 37.7989C318 36.0207 318 33.6671 318 28.9601V21.1123Z" fill="white"/>
<path d="M0 79L1119 79V80L0 80L0 79Z" fill="#DDDDDD"/>
<path d="M27.75 60.2815H27.3828H16.25M21.75 54.8265L16.25 60.2815M16.25 60.2815L21.75 65.705" stroke="#BABCBE" stroke-width="1.5" stroke-linecap="round" stroke-linejoin="round"/>
<path d="M48.25 60.2815H48.6172H59.75M54.25 54.8265L59.75 60.2815M59.75 60.2815L54.25 65.705" stroke="#BABCBE" stroke-width="1.5" stroke-linecap="round" stroke-linejoin="round"/>
<path d="M91 57.6675C90.0107 55.9147 88.1421 54.7327 86 54.7327C82.8244 54.7327 80.25 57.3303 80.25 60.5346C80.25 63.7389 82.8244 66.3365 86 66.3365C88.2797 66.3365 90.2495 64.9979 91.1795 63.0572" stroke="#606367" stroke-width="1.5" stroke-linecap="round"/>
<path d="M93 53.9827V59.5324H87.5L93 53.9827Z" fill="#606367"/>
<rect x="108" y="46.9999" width="1039" height="27" rx="13.5" fill="#F7F7F7"/>
<path d="M127.917 59.5745H122.083C121.623 59.5745 121.25 59.9886 121.25 60.4994V63.7367C121.25 64.2476 121.623 64.6617 122.083 64.6617H127.917C128.377 64.6617 128.75 64.2476 128.75 63.7367V60.4994C128.75 59.9886 128.377 59.5745 127.917 59.5745Z" fill="#606367"/>
<path d="M122.917 59.5745V57.7246C122.917 57.1113 123.136 56.5232 123.527 56.0895C123.918 55.6559 124.448 55.4123 125 55.4123C125.553 55.4123 126.083 55.6559 126.473 56.0895C126.864 56.5232 127.083 57.1113 127.083 57.7246V59.5745" stroke="#606367" stroke-width="0.7" stroke-linecap="round" stroke-linejoin="round"/>
<path fill-rule="evenodd" clip-rule="evenodd" d="M340 20.1807C339.724 20.1807 339.5 20.4045 339.5 20.6807V24.7301H335.5C335.224 24.7301 335 24.954 335 25.2301C335 25.5063 335.224 25.7301 335.5 25.7301H339.5V29.7709C339.5 30.0471 339.724 30.2709 340 30.2709C340.276 30.2709 340.5 30.0471 340.5 29.7709V25.7301H344.5C344.776 25.7301 345 25.5063 345 25.2301C345 24.954 344.776 24.7301 344.5 24.7301H340.5V20.6807C340.5 20.4045 340.276 20.1807 340 20.1807Z" fill="#606367"/>
<path d="M93.4434 21.6311L96.2324 28.592L99.0215 21.6311H100.48V30.1623H99.3555V26.84L99.4609 23.2541L96.6602 30.1623H95.7988L93.0039 23.2717L93.1152 26.84V30.1623H91.9902V21.6311H93.4434ZM104.928 30.2795C104.068 30.2795 103.369 29.9983 102.83 29.4358C102.291 28.8693 102.021 28.1135 102.021 27.1682V26.969C102.021 26.34 102.141 25.7795 102.379 25.2873C102.621 24.7912 102.957 24.4045 103.387 24.1272C103.82 23.8459 104.289 23.7053 104.793 23.7053C105.617 23.7053 106.258 23.9768 106.715 24.5197C107.172 25.0627 107.4 25.84 107.4 26.8518V27.3029H103.105C103.121 27.9279 103.303 28.4338 103.65 28.8205C104.002 29.2033 104.447 29.3947 104.986 29.3947C105.369 29.3947 105.693 29.3166 105.959 29.1604C106.225 29.0041 106.457 28.7971 106.656 28.5393L107.318 29.0549C106.787 29.8713 105.99 30.2795 104.928 30.2795ZM104.793 24.5959C104.355 24.5959 103.988 24.7561 103.691 25.0764C103.395 25.3928 103.211 25.8381 103.141 26.4123H106.316V26.3303C106.285 25.7795 106.137 25.3537 105.871 25.0529C105.605 24.7483 105.246 24.5959 104.793 24.5959ZM108.396 26.9397C108.396 25.967 108.627 25.1858 109.088 24.5959C109.549 24.0022 110.152 23.7053 110.898 23.7053C111.641 23.7053 112.229 23.9592 112.662 24.467V21.1623H113.746V30.1623H112.75L112.697 29.4826C112.264 30.0139 111.66 30.2795 110.887 30.2795C110.152 30.2795 109.553 29.9787 109.088 29.3772C108.627 28.7756 108.396 27.9904 108.396 27.0217V26.9397ZM109.48 27.0627C109.48 27.7815 109.629 28.344 109.926 28.7502C110.223 29.1565 110.633 29.3596 111.156 29.3596C111.844 29.3596 112.346 29.051 112.662 28.4338V25.5217C112.338 24.924 111.84 24.6252 111.168 24.6252C110.637 24.6252 110.223 24.8303 109.926 25.2404C109.629 25.6506 109.48 26.258 109.48 27.0627ZM116.734 29.2424H120.777V30.1623H115.604V21.6311H116.734V29.2424ZM121.604 26.9338C121.604 26.3127 121.725 25.7541 121.967 25.258C122.213 24.7619 122.553 24.3791 122.986 24.1096C123.424 23.84 123.922 23.7053 124.48 23.7053C125.344 23.7053 126.041 24.0041 126.572 24.6018C127.107 25.1994 127.375 25.9943 127.375 26.9865V27.0627C127.375 27.6799 127.256 28.2346 127.018 28.7268C126.783 29.215 126.445 29.5959 126.004 29.8693C125.566 30.1428 125.062 30.2795 124.492 30.2795C123.633 30.2795 122.936 29.9807 122.4 29.383C121.869 28.7854 121.604 27.9943 121.604 27.01V26.9338ZM122.693 27.0627C122.693 27.7658 122.855 28.3303 123.18 28.7561C123.508 29.1818 123.945 29.3947 124.492 29.3947C125.043 29.3947 125.48 29.1799 125.805 28.7502C126.129 28.3166 126.291 27.7111 126.291 26.9338C126.291 26.2385 126.125 25.676 125.793 25.2463C125.465 24.8127 125.027 24.5959 124.48 24.5959C123.945 24.5959 123.514 24.8088 123.186 25.2346C122.857 25.6604 122.693 26.2697 122.693 27.0627ZM131.277 29.3947C131.664 29.3947 132.002 29.2775 132.291 29.0432C132.58 28.8088 132.74 28.5158 132.771 28.1643H133.797C133.777 28.5275 133.652 28.8733 133.422 29.2014C133.191 29.5295 132.883 29.7912 132.496 29.9865C132.113 30.1818 131.707 30.2795 131.277 30.2795C130.414 30.2795 129.727 29.9924 129.215 29.4182C128.707 28.84 128.453 28.051 128.453 27.051V26.8693C128.453 26.2522 128.566 25.7033 128.793 25.2229C129.02 24.7424 129.344 24.3693 129.766 24.1037C130.191 23.8381 130.693 23.7053 131.271 23.7053C131.982 23.7053 132.572 23.9182 133.041 24.344C133.514 24.7697 133.766 25.3225 133.797 26.0022H132.771C132.74 25.592 132.584 25.2561 132.303 24.9943C132.025 24.7287 131.682 24.5959 131.271 24.5959C130.721 24.5959 130.293 24.7951 129.988 25.1936C129.688 25.5881 129.537 26.1604 129.537 26.9104V27.1154C129.537 27.8459 129.688 28.4084 129.988 28.8029C130.289 29.1975 130.719 29.3947 131.277 29.3947ZM136.785 27.2268L136.105 27.9358V30.1623H135.021V21.1623H136.105V26.6057L136.686 25.9084L138.66 23.8225H139.979L137.512 26.4709L140.266 30.1623H138.994L136.785 27.2268ZM151.926 26.3479H144.098V25.4631H151.926V26.3479ZM158.049 21.6311L160.838 28.592L163.627 21.6311H165.086V30.1623H163.961V26.84L164.066 23.2541L161.266 30.1623H160.404L157.609 23.2717L157.721 26.84V30.1623H156.596V21.6311H158.049ZM169.533 30.2795C168.674 30.2795 167.975 29.9983 167.436 29.4358C166.896 28.8693 166.627 28.1135 166.627 27.1682V26.969C166.627 26.34 166.746 25.7795 166.984 25.2873C167.227 24.7912 167.562 24.4045 167.992 24.1272C168.426 23.8459 168.895 23.7053 169.398 23.7053C170.223 23.7053 170.863 23.9768 171.32 24.5197C171.777 25.0627 172.006 25.84 172.006 26.8518V27.3029H167.711C167.727 27.9279 167.908 28.4338 168.256 28.8205C168.607 29.2033 169.053 29.3947 169.592 29.3947C169.975 29.3947 170.299 29.3166 170.564 29.1604C170.83 29.0041 171.062 28.7971 171.262 28.5393L171.924 29.0549C171.393 29.8713 170.596 30.2795 169.533 30.2795ZM169.398 24.5959C168.961 24.5959 168.594 24.7561 168.297 25.0764C168 25.3928 167.816 25.8381 167.746 26.4123H170.922V26.3303C170.891 25.7795 170.742 25.3537 170.477 25.0529C170.211 24.7483 169.852 24.5959 169.398 24.5959ZM173.213 29.2775L173.588 28.8147C174.01 28.2678 174.25 27.4475 174.309 26.3537L174.408 23.8225H178.492V29.2775H179.307V32.0256H178.223V30.1623H173.799V32.0256H172.715L172.721 29.2775H173.213ZM174.496 29.2775H177.408V24.8244H175.457L175.393 26.3361C175.326 27.5979 175.027 28.5783 174.496 29.2775ZM184.609 23.8225H185.693V30.1623H184.609V25.5393L181.686 30.1623H180.602V23.8225H181.686V28.4514L184.609 23.8225ZM187.527 23.8225H188.617V29.2775H191.535V23.8225H192.619V29.2775H193.375L193.27 32.0432H192.297V30.1623H187.527V23.8225ZM198.648 23.8225H199.732V30.1623H198.648V25.5393L195.725 30.1623H194.641V23.8225H195.725V28.4514L198.648 23.8225ZM206.652 30.1623H205.568V27.4553H202.656V30.1623H201.566V23.8225H202.656V26.5705H205.568V23.8225H206.652V30.1623ZM210.941 29.3947C211.328 29.3947 211.666 29.2775 211.955 29.0432C212.244 28.8088 212.404 28.5158 212.436 28.1643H213.461C213.441 28.5275 213.316 28.8733 213.086 29.2014C212.855 29.5295 212.547 29.7912 212.16 29.9865C211.777 30.1818 211.371 30.2795 210.941 30.2795C210.078 30.2795 209.391 29.9924 208.879 29.4182C208.371 28.84 208.117 28.051 208.117 27.051V26.8693C208.117 26.2522 208.23 25.7033 208.457 25.2229C208.684 24.7424 209.008 24.3693 209.43 24.1037C209.855 23.8381 210.357 23.7053 210.936 23.7053C211.646 23.7053 212.236 23.9182 212.705 24.344C213.178 24.7697 213.43 25.3225 213.461 26.0022H212.436C212.404 25.592 212.248 25.2561 211.967 24.9943C211.689 24.7287 211.346 24.5959 210.936 24.5959C210.385 24.5959 209.957 24.7951 209.652 25.1936C209.352 25.5881 209.201 26.1604 209.201 26.9104V27.1154C209.201 27.8459 209.352 28.4084 209.652 28.8029C209.953 29.1975 210.383 29.3947 210.941 29.3947ZM216.654 27.4611H215.863V30.1623H214.773V23.8225H215.863V26.5061H216.572L218.705 23.8225H220.018L217.51 26.8693L220.229 30.1623H218.852L216.654 27.4611ZM225.074 30.1623C225.012 30.0373 224.961 29.8147 224.922 29.4943C224.418 30.0178 223.816 30.2795 223.117 30.2795C222.492 30.2795 221.979 30.1037 221.576 29.7522C221.178 29.3967 220.979 28.9475 220.979 28.4045C220.979 27.7443 221.229 27.2326 221.729 26.8693C222.232 26.5022 222.939 26.3186 223.85 26.3186H224.904V25.8205C224.904 25.4416 224.791 25.1408 224.564 24.9182C224.338 24.6916 224.004 24.5783 223.562 24.5783C223.176 24.5783 222.852 24.676 222.59 24.8713C222.328 25.0666 222.197 25.3029 222.197 25.5803H221.107C221.107 25.2639 221.219 24.9592 221.441 24.6662C221.668 24.3693 221.973 24.135 222.355 23.9631C222.742 23.7912 223.166 23.7053 223.627 23.7053C224.357 23.7053 224.93 23.8889 225.344 24.2561C225.758 24.6193 225.973 25.1213 225.988 25.7619V28.6799C225.988 29.2619 226.062 29.7248 226.211 30.0686V30.1623H225.074ZM223.275 29.3361C223.615 29.3361 223.938 29.2483 224.242 29.0725C224.547 28.8967 224.768 28.6682 224.904 28.3869V27.0861H224.055C222.727 27.0861 222.062 27.4748 222.062 28.2522C222.062 28.592 222.176 28.8576 222.402 29.049C222.629 29.2404 222.92 29.3361 223.275 29.3361ZM232.533 23.8225V30.1623H231.443V27.6955H229.809L228.314 30.1623H227.143L228.736 27.5315C228.33 27.383 228.018 27.1545 227.799 26.8459C227.584 26.5334 227.477 26.1701 227.477 25.7561C227.477 25.1779 227.693 24.7131 228.127 24.3615C228.561 24.0061 229.141 23.8264 229.867 23.8225H232.533ZM228.566 25.7678C228.566 26.0764 228.672 26.3264 228.883 26.5178C229.094 26.7053 229.373 26.801 229.721 26.8049H231.443V24.7014H229.885C229.482 24.7014 229.162 24.801 228.924 25.0002C228.686 25.1955 228.566 25.4514 228.566 25.7678ZM241.352 23.8225H242.436V30.1623H241.352V25.5393L238.428 30.1623H237.344V23.8225H238.428V28.4514L241.352 23.8225ZM249.355 30.1623H248.271V27.4553H245.359V30.1623H244.27V23.8225H245.359V26.5705H248.271V23.8225H249.355V30.1623ZM250.867 27.1096C250.867 26.051 251.072 25.219 251.482 24.6135C251.893 24.008 252.455 23.7053 253.17 23.7053C253.502 23.7053 253.793 23.7619 254.043 23.8752V21.1623H255.127V23.9104C255.4 23.7736 255.721 23.7053 256.088 23.7053C256.807 23.7053 257.371 24.008 257.781 24.6135C258.191 25.219 258.396 26.092 258.396 27.2326C258.396 28.1662 258.191 28.9084 257.781 29.4592C257.375 30.01 256.814 30.2854 256.1 30.2854C255.721 30.2854 255.396 30.2229 255.127 30.0979V32.5998H254.043V30.1154C253.785 30.2287 253.49 30.2854 253.158 30.2854C252.447 30.2854 251.887 30.01 251.477 29.4592C251.07 28.9084 250.867 28.1545 250.867 27.1975V27.1096ZM257.312 27.1096C257.312 26.3127 257.176 25.6955 256.902 25.258C256.629 24.8166 256.252 24.5959 255.771 24.5959C255.525 24.5959 255.311 24.635 255.127 24.7131V29.301C255.303 29.3674 255.521 29.4006 255.783 29.4006C256.268 29.4006 256.643 29.2131 256.908 28.8381C257.178 28.4631 257.312 27.8869 257.312 27.1096ZM251.951 27.2326C251.951 27.9436 252.078 28.4826 252.332 28.8498C252.586 29.217 252.951 29.4006 253.428 29.4006C253.654 29.4006 253.859 29.3654 254.043 29.2951V24.6955C253.879 24.6291 253.678 24.5959 253.439 24.5959C252.963 24.5959 252.596 24.8088 252.338 25.2346C252.08 25.6604 251.951 26.3264 251.951 27.2326ZM259.521 26.9338C259.521 26.3127 259.643 25.7541 259.885 25.258C260.131 24.7619 260.471 24.3791 260.904 24.1096C261.342 23.84 261.84 23.7053 262.398 23.7053C263.262 23.7053 263.959 24.0041 264.49 24.6018C265.025 25.1994 265.293 25.9943 265.293 26.9865V27.0627C265.293 27.6799 265.174 28.2346 264.936 28.7268C264.701 29.215 264.363 29.5959 263.922 29.8693C263.484 30.1428 262.98 30.2795 262.41 30.2795C261.551 30.2795 260.854 29.9807 260.318 29.383C259.787 28.7854 259.521 27.9943 259.521 27.01V26.9338ZM260.611 27.0627C260.611 27.7658 260.773 28.3303 261.098 28.7561C261.426 29.1818 261.863 29.3947 262.41 29.3947C262.961 29.3947 263.398 29.1799 263.723 28.7502C264.047 28.3166 264.209 27.7111 264.209 26.9338C264.209 26.2385 264.043 25.676 263.711 25.2463C263.383 24.8127 262.945 24.5959 262.398 24.5959C261.863 24.5959 261.432 24.8088 261.104 25.2346C260.775 25.6604 260.611 26.2697 260.611 27.0627ZM272.008 27.0627C272.008 28.0275 271.787 28.8049 271.346 29.3947C270.904 29.9846 270.307 30.2795 269.553 30.2795C268.783 30.2795 268.178 30.0354 267.736 29.5471V32.5998H266.652V23.8225H267.643L267.695 24.5256C268.137 23.9787 268.75 23.7053 269.535 23.7053C270.297 23.7053 270.898 23.9924 271.34 24.5666C271.785 25.1408 272.008 25.9397 272.008 26.9631V27.0627ZM270.924 26.9397C270.924 26.2248 270.771 25.6604 270.467 25.2463C270.162 24.8322 269.744 24.6252 269.213 24.6252C268.557 24.6252 268.064 24.9162 267.736 25.4983V28.5275C268.061 29.1057 268.557 29.3947 269.225 29.3947C269.744 29.3947 270.156 29.1897 270.461 28.7795C270.77 28.3654 270.924 27.7522 270.924 26.9397ZM277.041 28.7268L279.197 23.8225H280.551V30.1623H279.467V25.551L277.416 30.1623H276.666L274.574 25.4514V30.1623H273.49V23.8225H274.896L277.041 28.7268ZM286.211 30.1623C286.148 30.0373 286.098 29.8147 286.059 29.4943C285.555 30.0178 284.953 30.2795 284.254 30.2795C283.629 30.2795 283.115 30.1037 282.713 29.7522C282.314 29.3967 282.115 28.9475 282.115 28.4045C282.115 27.7443 282.365 27.2326 282.865 26.8693C283.369 26.5022 284.076 26.3186 284.986 26.3186H286.041V25.8205C286.041 25.4416 285.928 25.1408 285.701 24.9182C285.475 24.6916 285.141 24.5783 284.699 24.5783C284.312 24.5783 283.988 24.676 283.727 24.8713C283.465 25.0666 283.334 25.3029 283.334 25.5803H282.244C282.244 25.2639 282.355 24.9592 282.578 24.6662C282.805 24.3693 283.109 24.135 283.492 23.9631C283.879 23.7912 284.303 23.7053 284.764 23.7053C285.494 23.7053 286.066 23.8889 286.48 24.2561C286.895 24.6193 287.109 25.1213 287.125 25.7619V28.6799C287.125 29.2619 287.199 29.7248 287.348 30.0686V30.1623H286.211ZM284.412 29.3361C284.752 29.3361 285.074 29.2483 285.379 29.0725C285.684 28.8967 285.904 28.6682 286.041 28.3869V27.0861H285.191C283.863 27.0861 283.199 27.4748 283.199 28.2522C283.199 28.592 283.312 28.8576 283.539 29.049C283.766 29.2404 284.057 29.3361 284.412 29.3361Z" fill="url(#paint1_linear)"/>
<g opacity="0.5">
<path d="M297.686 28.6162C297.491 28.8124 297.491 29.1304 297.686 29.3265C297.88 29.5226 298.195 29.5226 298.39 29.3265L297.686 28.6162ZM305.814 21.8349C306.009 21.6387 306.009 21.3207 305.814 21.1246C305.62 20.9285 305.305 20.9285 305.11 21.1246L305.814 21.8349ZM298.39 29.3265L305.814 21.8349L305.11 21.1246L297.686 28.6162L298.39 29.3265Z" fill="black"/>
<path d="M298.391 21.1264C298.196 20.9311 297.879 20.9311 297.684 21.1264C297.489 21.3216 297.489 21.6382 297.684 21.8335L298.391 21.1264ZM305.142 29.2916C305.337 29.4868 305.654 29.4868 305.849 29.2916C306.044 29.0963 306.044 28.7797 305.849 28.5845L305.142 29.2916ZM297.684 21.8335L305.142 29.2916L305.849 28.5845L298.391 21.1264L297.684 21.8335Z" fill="black"/>
</g>
<g filter="url(#filter0_i)">
<path fill-rule="evenodd" clip-rule="evenodd" d="M19 27.7481C22.3137 27.7481 25 25.0375 25 21.6939C25 18.3503 22.3137 15.6398 19 15.6398C15.6863 15.6398 13 18.3503 13 21.6939C13 25.0375 15.6863 27.7481 19 27.7481Z" fill="#EC6A5E"/>
</g>
<path d="M24.75 21.6939C24.75 24.9016 22.1735 27.4981 19 27.4981C15.8265 27.4981 13.25 24.9016 13.25 21.6939C13.25 18.4862 15.8265 15.8898 19 15.8898C22.1735 15.8898 24.75 18.4862 24.75 21.6939Z" stroke="#CE5347" stroke-width="0.5"/>
<g filter="url(#filter1_i)">
<path fill-rule="evenodd" clip-rule="evenodd" d="M39 27.7481C42.3137 27.7481 45 25.0375 45 21.6939C45 18.3503 42.3137 15.6398 39 15.6398C35.6863 15.6398 33 18.3503 33 21.6939C33 25.0375 35.6863 27.7481 39 27.7481Z" fill="#F5BF4F"/>
</g>
<path d="M44.75 21.6939C44.75 24.9016 42.1735 27.4981 39 27.4981C35.8265 27.4981 33.25 24.9016 33.25 21.6939C33.25 18.4862 35.8265 15.8898 39 15.8898C42.1735 15.8898 44.75 18.4862 44.75 21.6939Z" stroke="#D6A243" stroke-width="0.5"/>
<g filter="url(#filter2_i)">
<path fill-rule="evenodd" clip-rule="evenodd" d="M59 27.7481C62.3137 27.7481 65 25.0375 65 21.6939C65 18.3503 62.3137 15.6398 59 15.6398C55.6863 15.6398 53 18.3503 53 21.6939C53 25.0375 55.6863 27.7481 59 27.7481Z" fill="#64C554"/>
</g>
<path d="M64.75 21.6939C64.75 24.9016 62.1735 27.4981 59 27.4981C55.8265 27.4981 53.25 24.9016 53.25 21.6939C53.25 18.4862 55.8265 15.8898 59 15.8898C62.1735 15.8898 64.75 18.4862 64.75 21.6939Z" stroke="#58A942" stroke-width="0.5"/>
</g>
<path opacity="0.5" d="M140.063 58.4327C140.583 57.7937 141.261 57.4743 142.094 57.4743C143.546 57.4743 144.278 58.2931 144.291 59.9308V64.4694H143.116V59.9244C143.112 59.4293 142.998 59.0633 142.773 58.8263C142.553 58.5893 142.208 58.4708 141.739 58.4708C141.358 58.4708 141.024 58.5724 140.736 58.7755C140.448 58.9786 140.224 59.2452 140.063 59.5753V64.4694H138.889V54.7194H140.063V58.4327ZM147.642 55.9381V57.6012H148.924V58.5089H147.642V62.7682C147.642 63.0433 147.699 63.2506 147.813 63.3903C147.928 63.5257 148.122 63.5934 148.397 63.5934C148.533 63.5934 148.719 63.568 148.956 63.5172V64.4694C148.647 64.554 148.347 64.5963 148.055 64.5963C147.53 64.5963 147.134 64.4376 146.868 64.1202C146.601 63.8029 146.468 63.3522 146.468 62.7682V58.5089H145.217V57.6012H146.468V55.9381H147.642ZM151.895 55.9381V57.6012H153.177V58.5089H151.895V62.7682C151.895 63.0433 151.952 63.2506 152.066 63.3903C152.181 63.5257 152.375 63.5934 152.65 63.5934C152.786 63.5934 152.972 63.568 153.209 63.5172V64.4694C152.9 64.554 152.6 64.5963 152.308 64.5963C151.783 64.5963 151.387 64.4376 151.121 64.1202C150.854 63.8029 150.721 63.3522 150.721 62.7682V58.5089H149.47V57.6012H150.721V55.9381H151.895ZM160.356 61.1115C160.356 62.1567 160.117 62.9988 159.639 63.6378C159.161 64.2768 158.514 64.5963 157.697 64.5963C156.863 64.5963 156.207 64.3318 155.729 63.8029V67.11H154.555V57.6012H155.627L155.685 58.3629C156.163 57.7705 156.827 57.4743 157.678 57.4743C158.503 57.4743 159.155 57.7853 159.633 58.4074C160.115 59.0294 160.356 59.8948 160.356 61.0035V61.1115ZM159.182 60.9782C159.182 60.2037 159.017 59.5923 158.687 59.1437C158.357 58.6951 157.904 58.4708 157.329 58.4708C156.618 58.4708 156.084 58.7861 155.729 59.4166V62.6984C156.08 63.3247 156.618 63.6378 157.341 63.6378C157.904 63.6378 158.351 63.4157 158.681 62.9713C159.015 62.5228 159.182 61.8584 159.182 60.9782ZM165.854 62.6476C165.854 62.3302 165.733 62.0848 165.492 61.9113C165.255 61.7335 164.838 61.5812 164.241 61.4542C163.649 61.3273 163.177 61.1749 162.826 60.9972C162.479 60.8195 162.221 60.6079 162.051 60.3624C161.886 60.117 161.804 59.825 161.804 59.4865C161.804 58.9236 162.041 58.4476 162.515 58.0582C162.993 57.6689 163.602 57.4743 164.343 57.4743C165.121 57.4743 165.752 57.6753 166.234 58.0773C166.721 58.4793 166.964 58.9935 166.964 59.6198H165.784C165.784 59.2981 165.646 59.021 165.371 58.7882C165.1 58.5555 164.757 58.4391 164.343 58.4391C163.915 58.4391 163.581 58.5322 163.34 58.7184C163.099 58.9046 162.978 59.1479 162.978 59.4484C162.978 59.7319 163.09 59.9456 163.314 60.0895C163.539 60.2334 163.943 60.3709 164.527 60.5021C165.115 60.6333 165.591 60.7898 165.955 60.9718C166.319 61.1538 166.588 61.3738 166.761 61.632C166.939 61.8859 167.028 62.1969 167.028 62.5651C167.028 63.1787 166.782 63.6717 166.292 64.0441C165.801 64.4122 165.164 64.5963 164.381 64.5963C163.831 64.5963 163.344 64.499 162.921 64.3043C162.498 64.1097 162.166 63.8388 161.924 63.4918C161.687 63.1406 161.569 62.7618 161.569 62.3556H162.743C162.764 62.7492 162.921 63.0623 163.213 63.2951C163.509 63.5236 163.898 63.6378 164.381 63.6378C164.825 63.6378 165.181 63.549 165.447 63.3712C165.718 63.1893 165.854 62.948 165.854 62.6476ZM168.52 63.8536C168.52 63.6505 168.579 63.4812 168.697 63.3458C168.82 63.2104 169.002 63.1427 169.243 63.1427C169.484 63.1427 169.666 63.2104 169.789 63.3458C169.916 63.4812 169.979 63.6505 169.979 63.8536C169.979 64.0483 169.916 64.2112 169.789 64.3424C169.666 64.4736 169.484 64.5392 169.243 64.5392C169.002 64.5392 168.82 64.4736 168.697 64.3424C168.579 64.2112 168.52 64.0483 168.52 63.8536ZM168.526 58.2487C168.526 58.0455 168.585 57.8763 168.704 57.7409C168.826 57.6054 169.008 57.5377 169.25 57.5377C169.491 57.5377 169.673 57.6054 169.795 57.7409C169.922 57.8763 169.986 58.0455 169.986 58.2487C169.986 58.4433 169.922 58.6062 169.795 58.7374C169.673 58.8686 169.491 58.9342 169.25 58.9342C169.008 58.9342 168.826 58.8686 168.704 58.7374C168.585 58.6062 168.526 58.4433 168.526 58.2487ZM171.941 65.2628H170.932L174.791 55.2272H175.794L171.941 65.2628ZM175.876 65.2628H174.867L178.727 55.2272H179.729L175.876 65.2628ZM185.239 64.4694C185.172 64.334 185.117 64.0927 185.074 63.7457C184.528 64.3128 183.877 64.5963 183.119 64.5963C182.442 64.5963 181.886 64.4059 181.45 64.025C181.018 63.6399 180.802 63.1533 180.802 62.5651C180.802 61.8499 181.073 61.2955 181.615 60.902C182.161 60.5042 182.927 60.3053 183.913 60.3053H185.055V59.7658C185.055 59.3553 184.932 59.0294 184.687 58.7882C184.442 58.5428 184.08 58.4201 183.602 58.4201C183.183 58.4201 182.831 58.5258 182.548 58.7374C182.264 58.949 182.123 59.205 182.123 59.5055H180.942C180.942 59.1627 181.062 58.8326 181.304 58.5153C181.549 58.1937 181.879 57.9397 182.294 57.7535C182.713 57.5673 183.172 57.4743 183.671 57.4743C184.463 57.4743 185.083 57.6731 185.531 58.0709C185.98 58.4645 186.213 59.0083 186.229 59.7023V62.8634C186.229 63.4939 186.31 63.9954 186.471 64.3678V64.4694H185.239ZM183.291 63.5743C183.659 63.5743 184.008 63.4791 184.338 63.2887C184.668 63.0983 184.907 62.8507 185.055 62.546V61.1368H184.135C182.696 61.1368 181.977 61.5579 181.977 62.4C181.977 62.7682 182.099 63.056 182.345 63.2633C182.59 63.4707 182.905 63.5743 183.291 63.5743ZM193.872 61.1115C193.872 62.1567 193.633 62.9988 193.155 63.6378C192.677 64.2768 192.029 64.5963 191.212 64.5963C190.379 64.5963 189.723 64.3318 189.245 63.8029V67.11H188.07V57.6012H189.143L189.2 58.3629C189.678 57.7705 190.343 57.4743 191.193 57.4743C192.019 57.4743 192.67 57.7853 193.148 58.4074C193.631 59.0294 193.872 59.8948 193.872 61.0035V61.1115ZM192.698 60.9782C192.698 60.2037 192.533 59.5923 192.203 59.1437C191.873 58.6951 191.42 58.4708 190.844 58.4708C190.133 58.4708 189.6 58.7861 189.245 59.4166V62.6984C189.596 63.3247 190.133 63.6378 190.857 63.6378C191.42 63.6378 191.866 63.4157 192.196 62.9713C192.531 62.5228 192.698 61.8584 192.698 60.9782ZM201.172 61.1115C201.172 62.1567 200.933 62.9988 200.455 63.6378C199.976 64.2768 199.329 64.5963 198.512 64.5963C197.679 64.5963 197.023 64.3318 196.544 63.8029V67.11H195.37V57.6012H196.443L196.5 58.3629C196.978 57.7705 197.643 57.4743 198.493 57.4743C199.318 57.4743 199.97 57.7853 200.448 58.4074C200.931 59.0294 201.172 59.8948 201.172 61.0035V61.1115ZM199.998 60.9782C199.998 60.2037 199.833 59.5923 199.502 59.1437C199.172 58.6951 198.72 58.4708 198.144 58.4708C197.433 58.4708 196.9 58.7861 196.544 59.4166V62.6984C196.896 63.3247 197.433 63.6378 198.157 63.6378C198.72 63.6378 199.166 63.4157 199.496 62.9713C199.83 62.5228 199.998 61.8584 199.998 60.9782ZM202.695 63.8536C202.695 63.6505 202.755 63.4812 202.873 63.3458C202.996 63.2104 203.178 63.1427 203.419 63.1427C203.66 63.1427 203.842 63.2104 203.965 63.3458C204.092 63.4812 204.155 63.6505 204.155 63.8536C204.155 64.0483 204.092 64.2112 203.965 64.3424C203.842 64.4736 203.66 64.5392 203.419 64.5392C203.178 64.5392 202.996 64.4736 202.873 64.3424C202.755 64.2112 202.695 64.0483 202.695 63.8536ZM207.202 57.6012L207.234 58.3629C207.737 57.7705 208.417 57.4743 209.271 57.4743C210.232 57.4743 210.886 57.8424 211.233 58.5787C211.461 58.2487 211.758 57.9821 212.122 57.7789C212.49 57.5758 212.924 57.4743 213.423 57.4743C214.929 57.4743 215.695 58.2719 215.721 59.8673V64.4694H214.546V59.9371C214.546 59.4463 214.434 59.0802 214.21 58.839C213.986 58.5936 213.609 58.4708 213.08 58.4708C212.644 58.4708 212.282 58.602 211.995 58.8644C211.707 59.1225 211.54 59.4716 211.493 59.9118V64.4694H210.312V59.9689C210.312 58.9702 209.824 58.4708 208.846 58.4708C208.076 58.4708 207.549 58.7988 207.266 59.4547V64.4694H206.091V57.6012H207.202ZM220.348 64.5963C219.417 64.5963 218.66 64.2916 218.076 63.6823C217.492 63.0687 217.2 62.2498 217.2 61.2257V61.0099C217.2 60.3286 217.329 59.7213 217.587 59.1881C217.849 58.6507 218.213 58.2317 218.679 57.9313C219.148 57.6266 219.656 57.4743 220.202 57.4743C221.095 57.4743 221.789 57.7684 222.284 58.3566C222.779 58.9448 223.027 59.7869 223.027 60.8829V61.3717H218.374C218.391 62.0488 218.588 62.5968 218.964 63.0158C219.345 63.4305 219.828 63.6378 220.412 63.6378C220.826 63.6378 221.178 63.5532 221.465 63.3839C221.753 63.2146 222.005 62.9904 222.221 62.7111L222.938 63.2697C222.362 64.1541 221.499 64.5963 220.348 64.5963ZM220.202 58.4391C219.728 58.4391 219.33 58.6126 219.009 58.9596C218.687 59.3024 218.488 59.7848 218.412 60.4069H221.853V60.318C221.819 59.7213 221.658 59.2601 221.37 58.9342C221.082 58.6041 220.693 58.4391 220.202 58.4391ZM224.106 60.9782C224.106 59.9244 224.356 59.0781 224.855 58.4391C225.354 57.7959 226.008 57.4743 226.816 57.4743C227.62 57.4743 228.257 57.7493 228.727 58.2994V54.7194H229.901V64.4694H228.822L228.765 63.733C228.295 64.3086 227.642 64.5963 226.804 64.5963C226.008 64.5963 225.359 64.2705 224.855 63.6188C224.356 62.9671 224.106 62.1165 224.106 61.067V60.9782ZM225.28 61.1115C225.28 61.8901 225.441 62.4995 225.763 62.9396C226.084 63.3797 226.529 63.5997 227.096 63.5997C227.84 63.5997 228.384 63.2654 228.727 62.5968V59.442C228.376 58.7946 227.836 58.4708 227.108 58.4708C226.533 58.4708 226.084 58.693 225.763 59.1373C225.441 59.5817 225.28 60.2397 225.28 61.1115ZM233.005 64.4694H231.831V54.7194H233.005V64.4694ZM234.58 60.9718C234.58 60.299 234.711 59.6938 234.973 59.1564C235.24 58.6189 235.608 58.2042 236.078 57.9122C236.552 57.6202 237.091 57.4743 237.696 57.4743C238.632 57.4743 239.387 57.798 239.962 58.4454C240.542 59.0929 240.832 59.9541 240.832 61.0289V61.1115C240.832 61.7801 240.703 62.381 240.445 62.9142C240.191 63.4432 239.825 63.8558 239.347 64.152C238.873 64.4482 238.327 64.5963 237.709 64.5963C236.778 64.5963 236.023 64.2726 235.443 63.6251C234.867 62.9777 234.58 62.1207 234.58 61.0543V60.9718ZM235.76 61.1115C235.76 61.8732 235.936 62.4847 236.287 62.9459C236.643 63.4072 237.117 63.6378 237.709 63.6378C238.306 63.6378 238.78 63.4051 239.131 62.9396C239.482 62.4699 239.658 61.8139 239.658 60.9718C239.658 60.2186 239.478 59.6092 239.118 59.1437C238.763 58.674 238.289 58.4391 237.696 58.4391C237.117 58.4391 236.649 58.6697 236.293 59.131C235.938 59.5923 235.76 60.2524 235.76 61.1115ZM245.06 63.6378C245.479 63.6378 245.845 63.5109 246.158 63.257C246.471 63.0031 246.644 62.6857 246.678 62.3048H247.789C247.768 62.6984 247.632 63.0729 247.383 63.4284C247.133 63.7838 246.799 64.0673 246.38 64.2789C245.965 64.4905 245.525 64.5963 245.06 64.5963C244.124 64.5963 243.38 64.2853 242.825 63.6632C242.275 63.0369 242 62.1821 242 61.0988V60.902C242 60.2334 242.123 59.6388 242.368 59.1183C242.614 58.5978 242.965 58.1937 243.422 57.9059C243.883 57.6181 244.427 57.4743 245.053 57.4743C245.823 57.4743 246.462 57.7049 246.97 58.1661C247.482 58.6274 247.755 59.2262 247.789 59.9625H246.678C246.644 59.5182 246.475 59.1543 246.17 58.8707C245.87 58.583 245.498 58.4391 245.053 58.4391C244.457 58.4391 243.993 58.6549 243.663 59.0866C243.337 59.514 243.174 60.1339 243.174 60.9464V61.1686C243.174 61.9599 243.337 62.5693 243.663 62.9967C243.989 63.4241 244.454 63.6378 245.06 63.6378ZM251.026 61.2892L250.29 62.0573V64.4694H249.116V54.7194H250.29V60.6163L250.918 59.861L253.058 57.6012H254.486L251.813 60.4703L254.797 64.4694H253.419L251.026 61.2892ZM255.724 63.8536C255.724 63.6505 255.783 63.4812 255.901 63.3458C256.024 63.2104 256.206 63.1427 256.447 63.1427C256.688 63.1427 256.87 63.2104 256.993 63.3458C257.12 63.4812 257.184 63.6505 257.184 63.8536C257.184 64.0483 257.12 64.2112 256.993 64.3424C256.87 64.4736 256.688 64.5392 256.447 64.5392C256.206 64.5392 256.024 64.4736 255.901 64.3424C255.783 64.2112 255.724 64.0483 255.724 63.8536ZM262.446 58.6549C262.268 58.6253 262.076 58.6105 261.868 58.6105C261.098 58.6105 260.575 58.9384 260.3 59.5944V64.4694H259.126V57.6012H260.269L260.288 58.3947C260.673 57.7811 261.219 57.4743 261.925 57.4743C262.154 57.4743 262.327 57.5039 262.446 57.5631V58.6549ZM267.771 63.7902C267.314 64.3276 266.644 64.5963 265.759 64.5963C265.027 64.5963 264.469 64.3847 264.083 63.9616C263.703 63.5341 263.51 62.9036 263.506 62.07V57.6012H264.68V62.0382C264.68 63.0792 265.103 63.5997 265.95 63.5997C266.847 63.5997 267.444 63.2654 267.74 62.5968V57.6012H268.914V64.4694H267.797L267.771 63.7902Z" fill="black"/>
<defs>
<filter id="filter0_i" x="13" y="15.6398" width="12" height="12.1083" filterUnits="userSpaceOnUse" color-interpolation-filters="sRGB">
<feFlood flood-opacity="0" result="BackgroundImageFix"/>
<feBlend mode="normal" in="SourceGraphic" in2="BackgroundImageFix" result="shape"/>
<feColorMatrix in="SourceAlpha" type="matrix" values="0 0 0 0 0 0 0 0 0 0 0 0 0 0 0 0 0 0 127 0" result="hardAlpha"/>
<feOffset/>
<feGaussianBlur stdDeviation="3"/>
<feComposite in2="hardAlpha" operator="arithmetic" k2="-1" k3="1"/>
<feColorMatrix type="matrix" values="0 0 0 0 0.92549 0 0 0 0 0.427451 0 0 0 0 0.384314 0 0 0 1 0"/>
<feBlend mode="normal" in2="shape" result="effect1_innerShadow"/>
</filter>
<filter id="filter1_i" x="33" y="15.6398" width="12" height="12.1083" filterUnits="userSpaceOnUse" color-interpolation-filters="sRGB">
<feFlood flood-opacity="0" result="BackgroundImageFix"/>
<feBlend mode="normal" in="SourceGraphic" in2="BackgroundImageFix" result="shape"/>
<feColorMatrix in="SourceAlpha" type="matrix" values="0 0 0 0 0 0 0 0 0 0 0 0 0 0 0 0 0 0 127 0" result="hardAlpha"/>
<feOffset/>
<feGaussianBlur stdDeviation="3"/>
<feComposite in2="hardAlpha" operator="arithmetic" k2="-1" k3="1"/>
<feColorMatrix type="matrix" values="0 0 0 0 0.960784 0 0 0 0 0.768627 0 0 0 0 0.317647 0 0 0 1 0"/>
<feBlend mode="normal" in2="shape" result="effect1_innerShadow"/>
</filter>
<filter id="filter2_i" x="53" y="15.6398" width="12" height="12.1083" filterUnits="userSpaceOnUse" color-interpolation-filters="sRGB">
<feFlood flood-opacity="0" result="BackgroundImageFix"/>
<feBlend mode="normal" in="SourceGraphic" in2="BackgroundImageFix" result="shape"/>
<feColorMatrix in="SourceAlpha" type="matrix" values="0 0 0 0 0 0 0 0 0 0 0 0 0 0 0 0 0 0 127 0" result="hardAlpha"/>
<feOffset/>
<feGaussianBlur stdDeviation="3"/>
<feComposite in2="hardAlpha" operator="arithmetic" k2="-1" k3="1"/>
<feColorMatrix type="matrix" values="0 0 0 0 0.407843 0 0 0 0 0.8 0 0 0 0 0.345098 0 0 0 1 0"/>
<feBlend mode="normal" in2="shape" result="effect1_innerShadow"/>
</filter>
<linearGradient id="paint0_linear" x1="559" y1="0" x2="559" y2="80" gradientUnits="userSpaceOnUse">
<stop stop-color="#E7E5E7"/>
<stop offset="1" stop-color="#D2D0D2"/>
</linearGradient>
<linearGradient id="paint1_linear" x1="266" y1="25.2255" x2="293.5" y2="25.2256" gradientUnits="userSpaceOnUse">
<stop stop-color="#5E6567"/>
<stop offset="1" stop-color="white" stop-opacity="0"/>
</linearGradient>
</defs>
</svg>
