<svg width="37" height="34" viewBox="0 0 37 34" fill="none" xmlns="http://www.w3.org/2000/svg">
<path d="M6.46814 10.6793H3.51203V13.166H1.82661V10.6793H0V9.25053H1.82661V8.0117H0V6.59202H1.82661V0H6.56521C7.94178 0 9.03304 0.358688 9.83898 1.07606C10.6449 1.79344 11.0479 2.76401 11.0479 3.98777C11.0479 5.27181 10.6596 6.26348 9.8831 6.96277C9.11246 7.65603 8.01532 8.00568 6.59168 8.0117H3.51203V9.25053H6.46814V10.6793ZM3.51203 6.59202H6.56521C7.47704 6.59202 8.17121 6.37199 8.64772 5.93192C9.12422 5.49185 9.36248 4.84982 9.36248 4.00585C9.36248 3.24025 9.1154 2.62234 8.62124 2.15213C8.12709 1.67589 7.45939 1.43475 6.61815 1.42872H3.51203V6.59202Z" fill="#5A5C61"/>
<path d="M37.0001 19.9413C37.0001 21.0954 36.8829 22.2432 36.6486 23.3846C36.4143 24.526 36.0689 25.6168 35.6126 26.6567C35.1686 27.6967 34.6198 28.6669 33.9661 29.5674C33.3248 30.4552 32.591 31.2288 31.7647 31.8883C30.9384 32.5478 30.0319 33.0678 29.0452 33.4483C28.0586 33.8161 26.998 34 25.8633 34C24.7287 34 23.6619 33.8161 22.6629 33.4483C21.6762 33.0678 20.7698 32.5478 19.9434 31.8883C19.1171 31.2288 18.3833 30.4552 17.742 29.5674C17.1007 28.6669 16.5519 27.6967 16.0955 26.6567C15.6515 25.6168 15.3124 24.526 15.0781 23.3846C14.8437 22.2432 14.7266 21.0954 14.7266 19.9413C14.7266 18.7998 14.8437 17.6584 15.0781 16.5169C15.3124 15.3755 15.6515 14.2848 16.0955 13.2448C16.5519 12.1921 17.1007 11.2219 17.742 10.3341C18.3833 9.43366 19.1171 8.65367 19.9434 7.99417C20.7698 7.33467 21.6762 6.82103 22.6629 6.45323C23.6619 6.07275 24.7287 5.88251 25.8633 5.88251C26.998 5.88251 28.0586 6.07275 29.0452 6.45323C30.0319 6.82103 30.9384 7.33467 31.7647 7.99417C32.591 8.65367 33.3248 9.43366 33.9661 10.3341C34.6198 11.2219 35.1686 12.1921 35.6126 13.2448C36.0689 14.2848 36.4143 15.3755 36.6486 16.5169C36.8829 17.6584 37.0001 18.7998 37.0001 19.9413ZM33.4112 21.9007C33.4112 20.9622 33.3248 19.9666 33.1522 18.914C32.9795 17.8486 32.7205 16.796 32.3752 15.756C32.0422 14.7033 31.6229 13.7014 31.1172 12.7502C30.6239 11.7863 30.0504 10.9366 29.3967 10.201C28.7431 9.46536 28.0154 8.88196 27.2138 8.45075C26.4245 8.00686 25.5612 7.78491 24.6238 7.78491C23.8839 7.78491 23.2179 7.92442 22.6259 8.20344C22.0462 8.48246 21.5282 8.86294 21.0719 9.34488C20.6156 9.81414 20.2209 10.3658 19.8879 11C19.5673 11.6341 19.3021 12.3063 19.0925 13.0165C18.8828 13.7267 18.7286 14.4623 18.63 15.2233C18.5313 15.9716 18.482 16.7008 18.482 17.4111C18.482 18.3496 18.5683 19.3515 18.741 20.4169C18.9136 21.4822 19.1665 22.5412 19.4995 23.5939C19.8325 24.6465 20.2456 25.6611 20.7389 26.6377C21.2323 27.6016 21.7996 28.4577 22.4409 29.206C23.0945 29.9416 23.816 30.5313 24.6053 30.9752C25.3947 31.4191 26.258 31.641 27.1953 31.641C27.9353 31.641 28.6013 31.5015 29.1932 31.2225C29.7852 30.9435 30.3094 30.563 30.7657 30.0811C31.2344 29.5991 31.6352 29.0411 31.9682 28.4069C32.3012 27.7601 32.5725 27.0753 32.7822 26.3524C32.9918 25.6294 33.146 24.8875 33.2447 24.1265C33.3557 23.3656 33.4112 22.6236 33.4112 21.9007Z" fill="#5A5C61"/>
</svg>
