<svg width="34" height="37" viewBox="0 0 34 37" fill="none" xmlns="http://www.w3.org/2000/svg">
<path d="M33.6255 0.0999672C33.3939 -0.0354214 33.1092 -0.0331396 32.8798 0.1059L19.2758 8.34818C18.9229 8.56198 18.806 9.02839 19.0146 9.38999C19.2232 9.7515 19.6784 9.8713 20.0314 9.65757L29.7921 3.7439L11.6113 23.072L2.56882 20.2375L14.3697 13.0878C14.7226 12.8739 14.8395 12.4075 14.6309 12.0459C14.4223 11.6844 13.967 11.5644 13.6141 11.7783L0.364536 19.8057C0.111392 19.9591 -0.0295813 20.2511 0.00523527 20.5504C0.0400518 20.8497 0.243977 21.0997 0.525182 21.1878L11.3242 24.5728L16.0884 33.4577C16.0934 33.4669 16.0985 33.4747 16.1038 33.4816C16.1833 33.6175 16.3024 33.7284 16.451 33.7925C16.5441 33.8326 16.6418 33.8521 16.7389 33.8521C16.9292 33.8521 17.1165 33.7771 17.2579 33.6354L22.7361 28.1499L33.0404 31.3799C33.1117 31.4022 33.1848 31.4132 33.2576 31.4132C33.4146 31.4132 33.5698 31.3621 33.6991 31.2641C33.8883 31.1206 34 30.8937 34 30.6526V0.760633C34 0.487498 33.857 0.23528 33.6255 0.0999672ZM16.1289 25.0416C16.0429 25.1688 15.9968 25.3199 15.9968 25.4747V30.1274L12.7436 24.0604L27.1394 8.75617L16.1289 25.0416ZM17.4815 31.2846V26.5029L21.1183 27.6429L17.4815 31.2846ZM32.5153 29.6245L17.928 25.052L32.5153 3.47632V29.6245Z" fill="#5A5C61"/>
<path d="M8.19737 26.4371C7.90741 26.1401 7.4375 26.1401 7.14746 26.4371L0.217417 33.5376C-0.0724725 33.8346 -0.0724725 34.3162 0.217417 34.6133C0.362474 34.7618 0.552443 34.836 0.742411 34.836C0.93238 34.836 1.12235 34.7618 1.26733 34.6132L8.19737 27.5128C8.48726 27.2158 8.48726 26.7342 8.19737 26.4371Z" fill="#5A5C61"/>
<path d="M12.1044 31.9408C11.8147 31.6438 11.3448 31.6438 11.0546 31.9408L7.38392 35.7016C7.09403 35.9986 7.09403 36.4803 7.38392 36.7773C7.5289 36.9258 7.71887 37.0001 7.90884 37.0001C8.09881 37.0001 8.28878 36.9258 8.43376 36.7773L12.1044 33.0164C12.3943 32.7194 12.3943 32.2378 12.1044 31.9408Z" fill="#5A5C61"/>
<path d="M24.7728 31.652C24.4828 31.3551 24.0129 31.3551 23.723 31.652L20.0424 35.4231C19.7525 35.7201 19.7525 36.2018 20.0424 36.4989C20.1873 36.6473 20.3773 36.7216 20.5673 36.7216C20.7573 36.7216 20.9472 36.6473 21.0922 36.4989L24.7728 32.7278C25.0627 32.4307 25.0627 31.9491 24.7728 31.652Z" fill="#5A5C61"/>
</svg>
