<svg width="37" height="37" viewBox="0 0 37 37" fill="none" xmlns="http://www.w3.org/2000/svg">
<path d="M19.4148 17.5859C19.1323 17.3033 18.6748 17.3033 18.3923 17.5859C18.1104 17.8677 18.1104 18.3252 18.3923 18.6077C18.6748 18.8896 19.1323 18.8896 19.4148 18.6077C19.6967 18.3252 19.6967 17.8677 19.4148 17.5859Z" fill="#5A5C61"/>
<path d="M28.6122 8.38782C27.2001 6.97582 24.9142 6.97575 23.5021 8.38782C22.0937 9.7962 22.0936 12.0885 23.5023 13.498C24.9112 14.906 27.2035 14.9066 28.6122 13.4979C30.0241 12.0859 30.0244 9.79996 28.6122 8.38782ZM27.5902 12.4758C26.7452 13.3209 25.3697 13.3209 24.5243 12.476C23.6791 11.6303 23.6791 10.2548 24.5241 9.4098C25.3713 8.56263 26.7429 8.56249 27.5902 9.4098C28.4374 10.2569 28.4375 11.6286 27.5902 12.4758Z" fill="#5A5C61"/>
<path d="M36.7881 0.211673C36.6462 0.0698155 36.4525 -0.00707493 36.2512 0.000512941C36.0878 0.00636644 32.1974 0.162749 27.5728 1.79732C23.867 3.10576 20.7781 4.9791 18.392 7.3653C17.8573 7.9 17.337 8.46699 16.8392 9.05603C14.4798 7.66723 12.5892 8.1027 11.394 8.74232C8.64209 10.2151 6.93872 14.214 6.93872 17.0742C6.93894 17.3665 7.11505 17.63 7.38503 17.7418C7.47442 17.7789 7.56837 17.7969 7.66145 17.7969C7.84955 17.7969 8.03434 17.7234 8.17258 17.5852C9.62389 16.1339 11.414 16.2247 11.9988 16.3016L12.2518 16.5547C11.7538 17.7398 11.3526 18.9183 11.0583 20.0645C10.9521 20.4793 10.9879 20.9183 11.1458 21.3198C10.45 21.6404 9.77875 22.1112 9.19427 22.6957C7.33409 24.556 6.95635 29.0895 6.94118 29.2815C6.92456 29.4923 7.00101 29.6999 7.15053 29.8494C7.28661 29.9854 7.47067 30.0611 7.66145 30.0611C7.68038 30.0611 7.69939 30.0603 7.71839 30.0588C7.91047 30.0437 12.4441 29.666 14.3043 27.8058C14.8886 27.2215 15.3593 26.5503 15.68 25.8547C16.105 26.0219 16.5425 26.0425 16.9359 25.9417C18.0816 25.6475 19.26 25.2464 20.4453 24.7483L20.6984 25.0013C20.7752 25.5862 20.8659 27.3763 19.4147 28.8274C19.2081 29.0341 19.1462 29.3449 19.2581 29.6149C19.3699 29.885 19.6334 30.061 19.9257 30.061C22.786 30.061 26.7848 28.3576 28.2575 25.6057C28.8972 24.4106 29.3326 22.52 27.9438 20.1606C28.5326 19.663 29.0997 19.1427 29.6346 18.6078C32.0208 16.2216 33.894 13.1327 35.2025 9.42725C36.8371 4.80241 36.9934 0.911925 36.9993 0.748605C37.0065 0.548068 36.93 0.353602 36.7881 0.211673ZM8.55443 15.5199C9.00335 13.3474 10.3072 10.9634 12.0763 10.0166C13.2585 9.38397 14.5507 9.44597 15.9246 10.198C14.7541 11.7374 13.7365 13.3959 12.8883 15.1473C12.8776 15.1406 12.7475 14.9771 12.5058 14.9226C12.4065 14.9001 10.4944 14.4889 8.55443 15.5199ZM13.2823 26.7838C12.2887 27.7774 9.95776 28.3015 8.48448 28.5155C8.69853 27.0421 9.22267 24.7113 10.2162 23.7177C10.7727 23.1612 11.4179 22.7394 12.0664 22.5017L14.4983 24.9336C14.2607 25.5821 13.8388 26.2273 13.2823 26.7838ZM16.5769 24.5416C16.3678 24.5951 16.1255 24.5165 15.9455 24.3367C15.0106 23.4018 14.6448 23.0361 14.5301 22.9214C14.3196 22.711 13.8036 22.1949 12.6637 21.055C12.4835 20.8744 12.4049 20.6322 12.4583 20.4235C12.6898 19.522 12.9925 18.5972 13.3606 17.6634L19.3366 23.6394C18.4027 24.0076 17.478 24.3103 16.5769 24.5416ZM26.9834 24.9237C26.0366 26.6927 23.6527 27.9967 21.4803 28.4455C22.1729 27.1421 22.3256 25.4828 22.0726 24.4766C22.0138 24.2429 21.8613 24.1254 21.8528 24.1116C23.604 23.2634 25.2624 22.2458 26.802 21.0754C27.554 22.4494 27.616 23.7417 26.9834 24.9237ZM28.6127 17.5858C27.9615 18.2369 27.2604 18.866 26.5286 19.4555C24.7695 20.8719 22.8334 22.0716 20.7677 23.0267L13.9733 16.2324C14.9284 14.1666 16.1281 12.2305 17.5444 10.4716C18.1344 9.73937 18.7634 9.03811 19.4143 8.38728C21.5551 6.24635 24.3181 4.54247 27.6288 3.31598L33.684 9.37125C32.4577 12.6818 30.7538 15.4448 28.6127 17.5858ZM34.204 7.8471L29.1529 2.79603C31.9049 1.94127 34.2989 1.62121 35.4939 1.50616C35.3788 2.70136 35.0587 5.09545 34.204 7.8471Z" fill="#5A5C61"/>
<path d="M7.15069 19.6296C6.86856 19.3473 6.41105 19.3473 6.12871 19.6294L4.08431 21.6731C3.80205 21.9552 3.80197 22.4128 4.0841 22.6951C4.36615 22.9772 4.82366 22.9775 5.10608 22.6952L7.15047 20.6515C7.43274 20.3694 7.43281 19.9118 7.15069 19.6296Z" fill="#5A5C61"/>
<path d="M12.2608 30.8718C11.9787 30.5896 11.5211 30.5896 11.2388 30.8717L6.34355 35.7663C6.06128 36.0485 6.06128 36.5061 6.34347 36.7883C6.62553 37.0705 7.08318 37.0706 7.36545 36.7884L12.2607 31.8938C12.543 31.6116 12.543 31.154 12.2608 30.8718Z" fill="#5A5C61"/>
<path d="M6.47954 30.8718C6.19742 30.5896 5.73976 30.5896 5.45756 30.8717L0.562297 35.7663C0.280028 36.0485 0.280028 36.5061 0.562224 36.7883C0.844277 37.0705 1.30193 37.0706 1.5842 36.7884L6.47947 31.8938C6.76174 31.6116 6.76174 31.154 6.47954 30.8718Z" fill="#5A5C61"/>
<path d="M6.12816 24.7392C5.84603 24.4571 5.38838 24.4571 5.10618 24.7393L0.211639 29.6346C-0.0705582 29.9168 -0.0705582 30.3743 0.211711 30.6566C0.493908 30.9388 0.951493 30.9388 1.23369 30.6565L6.12823 25.7613C6.41043 25.479 6.41043 25.0215 6.12816 24.7392Z" fill="#5A5C61"/>
</svg>
