<svg width="66" height="67" viewBox="0 0 66 67" fill="none" xmlns="http://www.w3.org/2000/svg">
<path d="M64.8194 37.4091L63.5597 35.6839C62.5191 34.2599 62.5054 32.3293 63.5186 30.8779L64.7509 29.139C66.1749 27.1125 65.5177 24.3056 63.3269 23.1281L61.4511 22.1149C59.8902 21.2796 59.0412 19.5407 59.3288 17.8018L59.6848 15.6932C60.0956 13.256 58.2745 10.9967 55.7962 10.9009L53.6602 10.805C51.8939 10.7366 50.374 9.53165 49.8811 7.83381L49.2924 5.77997C48.6077 3.39751 45.9925 2.16521 43.7059 3.15105L41.7479 3.99997C40.1185 4.69828 38.2427 4.28751 37.0515 2.95936L35.6275 1.37106C33.9707 -0.4774 31.0816 -0.450015 29.4522 1.41213L28.0556 3.02782C26.8918 4.35597 25.0159 4.80782 23.3866 4.1369L21.4149 3.32905C19.1283 2.38429 16.5267 3.65767 15.8695 6.05382L15.3081 8.10766C14.8563 9.83288 13.3638 11.0515 11.5975 11.1473L9.46152 11.2706C6.98322 11.4075 5.20322 13.6941 5.65507 16.1176L6.03845 18.2126C6.35337 19.9515 5.53184 21.7041 3.98461 22.553L2.12246 23.5936C-0.040917 24.7985 -0.670762 27.6191 0.794312 29.6182L2.054 31.3434C3.09461 32.7674 3.10831 34.6981 2.09508 36.1494L0.862773 37.8884C-0.561223 39.9148 0.0960059 42.7217 2.28677 43.8993L4.16261 44.9125C5.72353 45.7477 6.57245 47.4866 6.28491 49.2256L5.91522 51.3205C5.50445 53.7577 7.32553 56.0169 9.80383 56.1128L11.9398 56.2086C13.7061 56.2771 15.226 57.482 15.7189 59.1798L16.3077 61.2337C16.9923 63.6161 19.6075 64.8484 21.8941 63.8626L23.8521 63.0137C25.4815 62.3154 27.3573 62.7261 28.5486 64.0406L29.9725 65.6289C31.6293 67.4774 34.5184 67.45 36.1478 65.5878L37.5444 63.9721C38.7082 62.644 40.5841 62.1921 42.2134 62.8631L44.1851 63.6709C46.4717 64.6157 49.0733 63.3423 49.7305 60.9461L50.2919 58.8923C50.7574 57.1945 52.2636 55.9758 54.0299 55.8663L56.1659 55.7431C58.6442 55.6062 60.4242 53.3195 59.9723 50.896L59.5889 48.8011C59.274 47.0622 60.0956 45.3096 61.6428 44.4606L63.5049 43.42C65.6546 42.2425 66.2708 39.4082 64.8194 37.4091ZM32.8069 55.1406C20.8672 55.1406 11.1867 45.4602 11.1867 33.5205C11.1867 21.5809 20.8672 11.9004 32.8069 11.9004C44.7465 11.9004 54.427 21.5809 54.427 33.5205C54.427 45.4602 44.7465 55.1406 32.8069 55.1406Z" fill="#39C468" fill-opacity="0.3"/>
<path fill-rule="evenodd" clip-rule="evenodd" d="M53 33.5C53 44.2265 44.0893 53 33 53C21.9107 53 13 44.2265 13 33.5C13 22.7735 21.9107 14 33 14C44.0893 14 53 22.7735 53 33.5ZM55 33.5C55 45.3741 45.1503 55 33 55C20.8497 55 11 45.3741 11 33.5C11 21.6259 20.8497 12 33 12C45.1503 12 55 21.6259 55 33.5ZM31.0413 34.0955L27.1244 30.1649L22.9619 34.3L26.8788 38.2306L29.0148 40.3666C30.1239 41.4893 31.9313 41.4893 33.054 40.3803L35.19 38.258L42.6386 30.8504L38.5036 26.688L31.0413 34.0955Z" fill="#39C468"/>
</svg>
